<?xml version="1.0" encoding="UTF-8"?>
<svg id="Layer_1" data-name="Layer 1" xmlns="http://www.w3.org/2000/svg" viewBox="0 0 1024 1024">
  <rect width="1024" height="1024"/>
  <g id="Button">
    <path d="M961.04,127.61c-155.68-25.61-314.44-38.65-471.87-38.65-141.54,0-284.23,10.54-423.98,31.35l-19.27,2.84,130.99,803.38,18.64-2.67c96.86-13.82,195.72-20.95,293.84-20.95,111.65,0,224.33,9.12,334.96,27.12l18.75,2.98,136.98-802.25-19.05-3.18ZM811.68,889.14c-106.65-16.35-214.95-24.63-322.3-24.63-93.66,0-187.96,6.39-280.63,18.77L90.09,155.47c131.73-18.65,265.9-28.09,399.08-28.09,148.9,0,298.99,11.79,446.57,35.05l-124.05,726.7Z" style="fill: #fff;"/>
  </g>
  <g id="Earth_glyph" data-name="Earth glyph">
    <path id="path10" d="M283.05,740.95l229.95-306.76,229.95,306.76h-144.16l46.81-61.86-132.6-176.05-132.04,176.05,46.25,61.86h-144.16Z" style="fill: #fff;"/>
    <path d="M513,281.05c-42.42,0-76.82,34.39-76.82,76.82s34.4,76.82,76.82,76.82,76.82-34.39,76.82-76.82-34.4-76.82-76.82-76.82ZM513,396.28c-21.23,0-38.42-17.21-38.42-38.41s17.19-38.41,38.42-38.41,38.42,17.18,38.42,38.41-17.19,38.41-38.42,38.41Z" style="fill: #fff;"/>
  </g>
</svg>